<?xml version="1.0" standalone="no"?>
<!DOCTYPE svg PUBLIC "-//W3C//DTD SVG 20010904//EN"
 "http://www.w3.org/TR/2001/REC-SVG-20010904/DTD/svg10.dtd">
<svg version="1.0" xmlns="http://www.w3.org/2000/svg"
 width="512.000000pt" height="512.000000pt" viewBox="0 0 512.000000 512.000000"
 preserveAspectRatio="xMidYMid meet">
<metadata>
Created by potrace 1.11, written by Peter Selinger 2001-2013
</metadata>
<g transform="translate(0.000000,512.000000) scale(0.100000,-0.100000)"
fill="#000000" stroke="none">
<path d="M760 4901 c-8 -5 -40 -16 -71 -25 -147 -42 -294 -193 -403 -413 -57
-115 -91 -211 -127 -357 -49 -204 -63 -327 -63 -576 -1 -235 7 -314 50 -523
79 -380 269 -694 483 -800 l66 -32 1799 -3 c1018 -1 1804 2 1810 7 6 4 34 16
63 25 271 89 489 470 569 996 22 144 25 530 6 665 -75 512 -266 882 -522 1008
l-65 32 -1790 2 c-984 1 -1797 -2 -1805 -6z m1910 -960 c678 -311 845 -391
845 -406 0 -15 -168 -96 -843 -408 -464 -213 -850 -386 -857 -383 -10 3 -14
166 -20 784 -4 429 -4 785 -1 791 4 6 13 11 19 10 7 0 392 -175 857 -388z"/>
<path d="M1083 1723 c-10 -4 -13 -126 -13 -563 0 -617 -5 -570 65 -570 70 0
65 -47 65 570 0 499 -2 558 -16 564 -18 7 -83 7 -101 -1z"/>
<path d="M3033 1723 c-10 -4 -13 -126 -13 -563 0 -617 -5 -570 65 -570 70 0
65 -47 65 570 0 499 -2 558 -16 564 -18 7 -83 7 -101 -1z"/>
<path d="M3410 1650 c-13 -13 -20 -33 -20 -60 0 -53 27 -80 79 -80 59 0 84 26
84 85 0 58 -18 75 -80 75 -30 0 -49 -6 -63 -20z"/>
<path d="M226 1628 c-14 -20 -16 -86 -16 -518 0 -372 3 -499 12 -508 13 -13
85 -16 112 -6 14 5 16 33 16 204 l0 197 123 5 c146 7 217 29 285 91 66 61 94
125 100 223 5 100 -13 163 -64 223 -74 86 -163 111 -394 111 -153 0 -159 -1
-174 -22z m371 -109 c35 -13 80 -55 100 -93 9 -17 16 -57 16 -91 1 -88 -30
-147 -97 -185 -48 -28 -58 -30 -158 -30 l-108 0 0 205 0 205 109 0 c60 0 122
-5 138 -11z"/>
<path d="M4503 1563 c-9 -3 -13 -33 -13 -98 l0 -94 -62 -3 -63 -3 0 -50 0 -50
62 -3 62 -3 3 -277 3 -277 27 -46 c41 -70 126 -101 233 -85 57 9 85 35 85 79
0 48 -11 60 -44 47 -39 -15 -108 -12 -133 5 -34 24 -43 89 -43 329 l0 226 104
0 c111 0 116 2 116 55 0 53 -5 55 -116 55 l-104 0 0 94 c0 76 -3 95 -16 100
-18 7 -83 7 -101 -1z"/>
<path d="M1608 1374 c-111 -26 -168 -69 -168 -125 0 -50 20 -53 106 -12 71 34
87 38 161 38 67 0 86 -4 110 -21 39 -29 55 -66 61 -141 l5 -63 -74 0 c-209 -1
-327 -48 -381 -154 -31 -61 -23 -170 17 -227 46 -65 110 -94 210 -94 88 0 133
17 199 75 18 17 36 30 39 30 3 0 7 -19 9 -42 3 -39 6 -43 32 -46 15 -2 39 -1
52 2 l24 6 0 288 c0 333 -6 372 -70 433 -66 63 -202 85 -332 53z m272 -506 l0
-81 -41 -38 c-56 -52 -97 -69 -164 -69 -51 0 -60 3 -90 33 -44 44 -53 93 -29
143 36 72 84 91 232 93 l92 1 0 -82z"/>
<path d="M3915 1373 c-108 -39 -155 -102 -155 -207 0 -112 48 -163 220 -236
136 -57 170 -102 133 -177 -40 -82 -157 -98 -282 -38 -40 19 -77 33 -82 29 -5
-3 -9 -27 -9 -55 0 -45 3 -51 33 -69 43 -27 89 -40 170 -47 151 -14 280 59
307 175 27 116 -15 199 -127 252 -214 101 -210 99 -228 135 -20 44 -13 84 21
116 39 37 141 39 225 5 35 -14 67 -22 72 -17 5 5 7 28 5 52 -3 41 -6 45 -50
67 -66 33 -184 40 -253 15z"/>
<path d="M2173 1363 c-7 -2 -13 -10 -13 -17 0 -14 253 -695 275 -738 12 -25 9
-38 -37 -153 -27 -69 -48 -134 -46 -143 5 -26 98 -29 125 -5 13 11 85 199 197
508 97 270 179 501 183 514 4 14 1 26 -8 32 -21 13 -105 11 -116 -3 -6 -7 -54
-143 -108 -303 -54 -159 -101 -293 -104 -297 -4 -4 -55 129 -115 297 -63 177
-114 306 -123 309 -18 7 -93 6 -110 -1z"/>
<path d="M3423 1363 c-10 -4 -13 -90 -13 -383 0 -418 -5 -390 65 -390 70 0 65
-28 65 390 0 420 5 391 -68 389 -20 0 -43 -3 -49 -6z"/>
</g>
</svg>
